# xmcd CD database file
#
# Track frame offsets:
#	150
#	12477
#	23200
#	37870
#	49070
#	60352
#	75685
#	92182
#	106290
#	117680
#	130022
#	145227
#	159317
#	171120
#	184692
#	196557
#	213255
#	226097
#	237845
#	253940
#	266767
#	278710
#
# Disc length: 3872 seconds
#
# Revision: 0
# Processed by: cddbd v1.5.1PL2 Copyright (c) Steve Scherf et al.
# Submitted via: CDex 1.51
#
DISCID=250f1e16
DTITLE=Jim Owens - sings with Friends and Heroes
DYEAR=2003
DGENRE=Country
TTITLE0=One More Drink
TTITLE1=Abilene
TTITLE2=Snake Song
TTITLE3=Louisiana Woman, Mississippi Man
TTITLE4=Six White Horses
TTITLE5=Morning
TTITLE6=Country Singers
TTITLE7=Teddy Bear Song
TTITLE8=Act Naturally
TTITLE9=We Must Have Been Out Of Our Minds
TTITLE10=Last Night I Had The Strangest Dream
TTITLE11=Sixteen Tons
TTITLE12=Pistolero
TTITLE13=Swinging Doors
TTITLE14=Chasing Rainbows
TTITLE15=Crazy
TTITLE16=Hank George, Lefty and Me
TTITLE17=Southern Lovin'
TTITLE18=Through My Eyes
TTITLE19=Papa Garr's
TTITLE20=Silver Moon Over Hawaii
TTITLE21=Wings Of A Dove
EXTD=YEAR: 2003
EXTT0=
EXTT1=
EXTT2=
EXTT3=
EXTT4=
EXTT5=
EXTT6=
EXTT7=
EXTT8=
EXTT9=
EXTT10=
EXTT11=
EXTT12=
EXTT13=
EXTT14=
EXTT15=
EXTT16=
EXTT17=
EXTT18=
EXTT19=
EXTT20=
EXTT21=
PLAYORDER=
